<svg aria-hidden="true" style="position: absolute; width: 0; height: 0; overflow: hidden;" version="1.1" xmlns="http://www.w3.org/2000/svg" xmlns:xlink="http://www.w3.org/1999/xlink">
<defs>
<symbol id="artist" viewBox="0 0 32 32">
<path fill="#ff5" style="fill: var(--color1, #ff5)" d="M24.821 13.128h3.846v2.051h-2.667v6.975q0 1.12-0.773 1.893t-1.892 0.773-1.894-0.773-0.774-1.892 0.773-1.894 1.893-0.774q0.421 0 0.792 0.127t0.695 0.396v-6.882zM4.667 24.821v-2.195q0-0.833 0.481-1.549t1.294-1.113q1.938-0.931 3.803-1.37t3.756-0.44q1.144 0 2.168 0.14t2.014 0.445q-0.231 0.272-0.418 0.544t-0.331 0.554q-0.764-0.174-1.665-0.262t-1.768-0.087q-1.772 0-3.503 0.415t-3.42 1.231q-0.505 0.244-0.791 0.646t-0.286 0.846v0.862h11.136q0.067 0.359 0.172 0.684t0.289 0.65h-12.931zM14 15.179q-1.65 0-2.825-1.175t-1.175-2.825 1.175-2.825 2.825-1.175 2.825 1.175 1.175 2.825-1.175 2.825-2.825 1.175zM14 13.846q1.1 0 1.883-0.783t0.783-1.883-0.783-1.883-1.883-0.783-1.883 0.783-0.783 1.883 0.783 1.883 1.883 0.783z"></path>
</symbol>
<symbol id="format_list" viewBox="0 0 32 32">
<path fill="#ff5" style="fill: var(--color1, #fff)" d="M23.533 27.8h0.933v-3.333h3.333v-0.933h-3.333v-3.333h-0.933v3.333h-3.333v0.933h3.333v3.333zM24 28.933q-2.067 0-3.5-1.433t-1.433-3.5 1.433-3.5 3.5-1.433 3.5 1.433 1.433 3.5-1.433 3.5-3.5 1.433zM13.067 8.467v-0.933h13.2v0.933h-13.2zM7.233 25.5q-0.619 0-1.059-0.441t-0.441-1.059 0.441-1.059 1.059-0.441 1.059 0.441 0.441 1.059-0.441 1.059-1.059 0.441zM7.233 17.5q-0.619 0-1.059-0.441t-0.441-1.059 0.441-1.059 1.059-0.441 1.059 0.441 0.441 1.059-0.441 1.059-1.059 0.441zM7.233 9.5q-0.619 0-1.059-0.441t-0.441-1.059 0.441-1.059 1.059-0.441 1.059 0.441 0.441 1.059-0.441 1.059-1.059 0.441zM13.067 24.467v-0.933h2.467q-0.033 0.233-0.033 0.467t0.033 0.467h-2.467zM13.067 16.467v-0.933h10.933q-1.067 0-2.033 0.233t-1.833 0.7h-7.067z"></path>
</symbol>
<symbol id="microphone" viewBox="10 3 13 25"> 
<path d="M6.952 22.264l9.456-11.797s0.004-1.974 1.624-3.358c1.975-1.687 5.078-1.405 6.705 0.4s2.068 4.753-0.156 6.866c-1.385 1.316-2.944 1.303-2.944 1.303l-11.839 9.456-1.168-1.142-2.158 2.011s-0.179 0.148-0.356-0.072c-0.177-0.221-0.089-0.41-0.089-0.41l2.13-2.025-1.205-1.231zM9.168 22.121l0.711 0.686 9.395-7.394s-1.001-0.552-1.602-1.184c-0.601-0.632-0.948-1.498-0.948-1.498l-7.557 9.39zM18.647 8.912s-1.662 2.293 0.3 4.166c1.962 1.874 4.195 0.3 4.195 0.3s-2.009-0.466-3.099-1.549c-1.090-1.083-1.396-2.918-1.396-2.918zM19.321 8.348s0.463 1.764 1.575 2.884c1.112 1.121 2.859 1.583 2.859 1.583s1.611-2.44-0.409-4.29c-2.020-1.85-4.026-0.177-4.026-0.177z"></path>
</symbol>
<symbol id="podcast" viewBox="0 0 32 32">
<path d="M4 16c0-6.627 5.373-12 12-12s12 5.373 12 12c0 3.314-1.342 6.312-3.515 8.485-0.521 0.521-0.521 1.365 0 1.886s1.365 0.521 1.886 0c2.653-2.653 4.296-6.321 4.296-10.371 0-8.1-6.567-14.667-14.667-14.667s-14.667 6.566-14.667 14.667c0 4.050 1.643 7.718 4.296 10.371 0.521 0.521 1.365 0.521 1.886 0s0.521-1.365 0-1.886c-2.173-2.173-3.515-5.171-3.515-8.485zM9.333 16c0-3.682 2.985-6.667 6.667-6.667s6.667 2.985 6.667 6.667c0 1.841-0.745 3.506-1.953 4.714-0.521 0.521-0.521 1.365 0 1.886s1.365 0.521 1.886 0c1.688-1.687 2.734-4.023 2.734-6.6 0-5.155-4.179-9.333-9.333-9.333s-9.333 4.179-9.333 9.333c0 2.577 1.046 4.912 2.734 6.6 0.521 0.521 1.365 0.521 1.886 0s0.521-1.365 0-1.886c-1.208-1.208-1.953-2.873-1.953-4.714zM19.333 16c0 1.841-1.492 3.333-3.333 3.333s-3.333-1.492-3.333-3.333c0-1.841 1.492-3.333 3.333-3.333s3.333 1.492 3.333 3.333zM12.898 23.325c-0.125-1.798 1.3-3.325 3.102-3.325s3.227 1.527 3.102 3.325l-0.429 6.181c-0.098 1.405-1.265 2.494-2.673 2.494s-2.576-1.089-2.673-2.494l-0.429-6.181z"></path>
</symbol>
<symbol id="queue_music" viewBox="0 0 32 32">
<path fill="#ff5" style="fill: var(--color1, #ff5)" d="M20.959 24.933q-1.225 0-2.075-0.846t-0.85-2.054q0-1.236 0.856-2.101t2.078-0.865q0.556 0 1.061 0.233t0.939 0.6v-10.167h4.633v1.733h-3.7v10.567q0 1.208-0.858 2.054t-2.083 0.846zM5.733 19.2v-0.933h9v0.933h-9zM5.733 14.933v-0.933h13.9v0.933h-13.9zM5.733 10.667v-0.933h13.9v0.933h-13.9z"></path>
</symbol>
<symbol id="list" viewBox="0 0 32 32">
<path d="M29.333 22.667v2.667h-18.667v-2.667h18.667zM29.333 14.667v2.667h-18.667v-2.667h18.667zM29.333 6.667v2.667h-18.667v-2.667h18.667zM5.333 26.667c-1.473 0-2.667-1.194-2.667-2.667s1.194-2.667 2.667-2.667c1.473 0 2.667 1.194 2.667 2.667s-1.194 2.667-2.667 2.667zM5.333 18.667c-1.473 0-2.667-1.194-2.667-2.667s1.194-2.667 2.667-2.667c1.473 0 2.667 1.194 2.667 2.667s-1.194 2.667-2.667 2.667zM5.333 10.667c-1.473 0-2.667-1.194-2.667-2.667s1.194-2.667 2.667-2.667c1.473 0 2.667 1.194 2.667 2.667s-1.194 2.667-2.667 2.667z"></path>
</symbol>
<symbol id="songs" viewBox="0 0 32 32">
<path d="M31.373 0.352c-0.316-0.274-0.734-0.397-1.148-0.338l-20.173 2.882c-0.71 0.101-1.237 0.709-1.237 1.427v16.894c-0.854-0.497-1.844-0.784-2.901-0.784-3.189 0-5.783 2.594-5.783 5.783s2.594 5.783 5.783 5.783 5.783-2.594 5.783-5.783v-14.88l17.291-2.47v9.469c-0.854-0.497-1.844-0.784-2.901-0.784-3.189 0-5.783 2.594-5.783 5.783s2.594 5.783 5.783 5.783c3.189 0 5.783-2.594 5.783-5.783v-21.894c-0-0.418-0.181-0.815-0.497-1.089zM5.913 29.118c-1.6 0-2.901-1.302-2.901-2.901s1.302-2.901 2.901-2.901c1.6 0 2.901 1.302 2.901 2.901s-1.302 2.901-2.901 2.901zM28.988 5.955l-17.291 2.47v-2.853l17.291-2.47v2.853zM26.087 26.236c-1.6 0-2.901-1.302-2.901-2.901s1.302-2.901 2.901-2.901c1.6 0 2.901 1.302 2.901 2.901s-1.302 2.901-2.901 2.901z"></path>
</symbol>
<symbol id="pause" viewBox="0 0 32 32">
<path fill="#1c274c" style="fill: var(--color1, #1c274c)" d="M16 29.333c-7.364 0-13.333-5.97-13.333-13.333s5.97-13.333 13.333-13.333c7.364 0 13.333 5.97 13.333 13.333s-5.97 13.333-13.333 13.333zM10.768 11.49c-0.101 0.245-0.101 0.556-0.101 1.177v6.667c0 0.621 0 0.932 0.101 1.177 0.135 0.327 0.395 0.586 0.722 0.722 0.245 0.101 0.556 0.101 1.177 0.101s0.932 0 1.177-0.101c0.327-0.135 0.586-0.395 0.722-0.722 0.101-0.245 0.101-0.556 0.101-1.177v-6.667c0-0.621 0-0.932-0.101-1.177-0.135-0.327-0.395-0.586-0.722-0.722-0.245-0.101-0.556-0.101-1.177-0.101s-0.932 0-1.177 0.101c-0.327 0.135-0.586 0.395-0.722 0.722zM17.435 11.49c-0.101 0.245-0.101 0.556-0.101 1.177v6.667c0 0.621 0 0.932 0.101 1.177 0.135 0.327 0.395 0.586 0.722 0.722 0.245 0.101 0.556 0.101 1.177 0.101s0.932 0 1.177-0.101c0.327-0.135 0.586-0.395 0.722-0.722 0.101-0.245 0.101-0.556 0.101-1.177v-6.667c0-0.621 0-0.932-0.101-1.177-0.135-0.327-0.395-0.586-0.722-0.722-0.245-0.101-0.556-0.101-1.177-0.101s-0.932 0-1.177 0.101c-0.327 0.135-0.586 0.395-0.722 0.722z"></path>
</symbol>
<symbol id="play" viewBox="0 0 32 32">
<path fill="#1c274c" style="fill: var(--color1, #000)" opacity="0.3" d="M16 29.333c7.364 0 13.333-5.97 13.333-13.333s-5.97-13.333-13.333-13.333c-7.364 0-13.333 5.97-13.333 13.333s5.97 13.333 13.333 13.333z"></path>
<path fill="#1c274c" style="fill: var(--color1, #fff)" d="M20.552 17.412l-6.294 3.716c-1.013 0.598-2.258-0.18-2.258-1.412v-7.432c0-1.232 1.245-2.010 2.258-1.412l6.294 3.716c1.042 0.615 1.042 2.209 0 2.824z"></path>
</symbol>
<symbol id="albums" viewBox="0 0 32 32">
<path d="M16 0c-8.837 0-16 7.164-16 16s7.163 16 16 16 16-7.164 16-16-7.163-16-16-16zM6.029 9.368l-0.090 0.136-1.279-0.852 0.091-0.137c2.036-3.055 5.271-5.174 8.874-5.814l0.161-0.028 0.27 1.513-0.161 0.027c-3.193 0.567-6.060 2.446-7.865 5.155zM9.111 11.668l-1.295-0.872 0.113-0.169c1.465-2.177 3.78-3.707 6.352-4.197l0.2-0.040 0.292 1.534-0.199 0.037c-2.165 0.416-4.114 1.704-5.35 3.537l-0.113 0.17zM9.974 16c0-3.328 2.698-6.025 6.026-6.026 3.328 0.001 6.025 2.698 6.025 6.026s-2.697 6.025-6.025 6.025-6.026-2.697-6.026-6.025zM17.559 25.953l-0.252-1.541 0.202-0.033c2.288-0.373 4.335-1.7 5.613-3.637l0.112-0.17 1.305 0.857-0.113 0.172c-1.517 2.299-3.946 3.873-6.666 4.318l-0.201 0.033zM27.25 23.483c-2.037 3.056-5.271 5.176-8.876 5.816l-0.161 0.027-0.268-1.513 0.16-0.028c3.191-0.565 6.060-2.444 7.865-5.155l0.090-0.137 1.279 0.854-0.090 0.136z"></path>
<path d="M19.272 12.728c-0.839-0.839-1.993-1.354-3.272-1.355s-2.433 0.517-3.271 1.355-1.355 1.993-1.355 3.272 0.517 2.434 1.355 3.272 1.993 1.355 3.272 1.355c1.279-0.001 2.434-0.517 3.272-1.355 0.837-0.839 1.355-1.993 1.355-3.272s-0.518-2.434-1.355-3.272zM16 18.462c-1.359 0-2.461-1.103-2.461-2.462s1.102-2.461 2.461-2.461 2.461 1.102 2.461 2.461-1.102 2.462-2.461 2.462z"></path>
</symbol>
<symbol id="home" viewBox="0 0 32 32">
<path d="M28.947 15.053l-12-12c-0.242-0.244-0.577-0.394-0.947-0.394s-0.705 0.151-0.947 0.394l-12 12c-0.242 0.242-0.392 0.577-0.392 0.947 0 0.739 0.599 1.339 1.339 1.339 0.37 0 0.704-0.15 0.947-0.392v0l0.387-0.4v10.52c0.051 1.263 1.087 2.268 2.358 2.268 0.029 0 0.057-0 0.086-0.002l-0.004 0h3.56c0.736 0 1.333-0.597 1.333-1.333v0-6.533c0-0.736 0.597-1.333 1.333-1.333v0h4c0.736 0 1.333 0.597 1.333 1.333v0 6.533c0 0.736 0.597 1.333 1.333 1.333v0h3.56c0.024 0.001 0.053 0.001 0.082 0.001 1.271 0 2.307-1.005 2.358-2.264l0-0.005v-10.52l0.387 0.4c0.242 0.244 0.577 0.394 0.947 0.394s0.705-0.151 0.947-0.394l0-0c0.244-0.242 0.394-0.577 0.394-0.947s-0.151-0.705-0.394-0.947l-0-0z"></path>
</symbol>
</defs>
</svg>
