<svg aria-hidden="true" style="position: absolute; width: 0; height: 0; overflow: hidden;" version="1.1" xmlns="http://www.w3.org/2000/svg" xmlns:xlink="http://www.w3.org/1999/xlink">
<defs>
<symbol id="circle" viewBox="0 0 32 32">
<path d="M16 0c-8.822 0-16 7.178-16 16s7.178 16 16 16 16-7.178 16-16-7.178-16-16-16zM16 28.903c-7.115 0-12.903-5.788-12.903-12.903s5.788-12.903 12.903-12.903 12.903 5.788 12.903 12.903-5.788 12.903-12.903 12.903z"></path>
<path d="M16 8.258c-4.269 0-7.742 3.473-7.742 7.742s3.473 7.742 7.742 7.742 7.742-3.473 7.742-7.742-3.473-7.742-7.742-7.742zM16 20.645c-2.561 0-4.645-2.084-4.645-4.645s2.084-4.645 4.645-4.645 4.645 2.084 4.645 4.645c0 2.561-2.084 4.645-4.645 4.645z"></path>
</symbol>
<symbol id="collection" viewBox="0 0 32 32">
<path fill="#000" style="fill: var(--color1, #000)" d="M24 5.333v16c0 1.473-1.194 2.667-2.667 2.667v0h-16c-1.473 0-2.667-1.194-2.667-2.667v0-16c0-1.473 1.194-2.667 2.667-2.667v0h16c1.473 0 2.667 1.194 2.667 2.667v0zM29.333 26.667v-20c0-0.736-0.597-1.333-1.333-1.333s-1.333 0.597-1.333 1.333v0 20h-17.333c-0.736 0-1.333 0.597-1.333 1.333s0.597 1.333 1.333 1.333v0h17.333c1.473 0 2.667-1.194 2.667-2.667v0z"></path>
<path fill="#2ca9bc" style="fill: var(--color2, #2ca9bc)" d="M17.333 6.667h-4c-0.736 0-1.333 0.597-1.333 1.333v0 4.24c-0.397-0.145-0.855-0.229-1.333-0.229-2.209 0-4 1.791-4 4s1.791 4 4 4c2.209 0 4-1.791 4-4 0-0.004 0-0.008-0-0.012v0.001-6.667h2.667c0.736 0 1.333-0.597 1.333-1.333s-0.597-1.333-1.333-1.333v0z"></path>
</symbol>
<symbol id="home" viewBox="0 0 32 32">
<path d="M26.737 27.305c0 0.93-0.802 1.327-1.789 1.327h-1.789c-0.988 0-1.789-0.397-1.789-1.327v-1.684c0-1.861-1.602-3.725-3.579-3.725h-3.579c-1.977 0-3.579 1.864-3.579 3.725v1.684c0 0.93-0.802 1.327-1.789 1.327h-1.789c-0.988 0-1.789-0.397-1.789-1.327v-13.58c0-0.224 0.095-0.438 0.261-0.596l9.193-8.65c0.7-0.659 1.832-0.659 2.53 0l9.228 8.684c0.166 0.158 0.261 0.372 0.261 0.595v13.548zM30.316 12.842c0-0.446-0.188-0.872-0.521-1.189l-11.272-10.661c-1.396-1.319-3.663-1.324-5.064-0.010l-11.249 10.552c-0.336 0.317-0.526 0.744-0.526 1.192v16.263c0 1.861 1.602 3.011 3.579 3.011h5.368c1.977 0 3.579-1.15 3.579-3.011v-1.684c0-0.93 0.802-1.684 1.789-1.684s1.789 0.755 1.789 1.684v1.684c0 1.861 1.602 3.011 3.579 3.011h5.368c1.977 0 3.579-1.15 3.579-3.011v-16.147z"></path>
</symbol>
<symbol id="microphone" viewBox="0 0 32 32">
<path d="M1.071 32l-1.071-1.071 2.889-2.889 1.071 1.071-2.889 2.889z"></path>
<path d="M0.011 30.919l2.889-2.868 1.050 1.071-2.878 2.857z"></path>
<path d="M16.48 9.225l-13.763 16.555 3.504 3.504 16.555-13.763-6.295-6.295zM6.221 29.283l16.555-13.763z"></path>
<path d="M2.728 25.769l13.764-16.534 6.273 6.296-16.543 13.732-3.494-3.494z"></path>
<path d="M17.076 7.533l7.392 7.392c1.845 0.021 3.692-0.651 5.139-1.993l-10.538-10.538c-1.341 1.447-2.014 3.294-1.993 5.139z"></path>
<path d="M24.468 14.909l-7.381-7.387c-0.017-1.89 0.689-3.711 1.993-5.118l10.517 10.538c-1.383 1.261-3.174 1.968-5.043 1.968l-0.085-0.001z"></path>
<path d="M29.819 2.182c-2.484-2.484-6.282-2.844-9.155-1.094l10.249 10.249c1.75-2.874 1.39-6.671-1.094-9.155z"></path>
<path d="M20.674 1.077c1.163-0.686 2.505-1.062 3.876-1.062 1.987 0 3.854 0.773 5.258 2.177 2.431 2.431 2.883 6.179 1.102 9.121l-10.236-10.236z"></path>
</symbol>
<symbol id="music-bars" viewBox="0 0 32 32">
<path d="M20.674 1.077c1.163-0.686 2.505-1.062 3.876-1.062 1.987 0 3.854 0.773 5.258 2.177 2.431 2.431 2.883 6.179 1.102 9.121l-10.236-10.236z"></path>
</symbol>
<symbol id="playlist" viewBox="0 0 32 32">
<path d="M4 6h18v2h-18v-2z"></path>
<path d="M4 12h18v2h-18v-2z"></path>
<path d="M4 18h12v2h-12v-2z"></path>
<path d="M21 18l7 5-7 5v-10z"></path>
</symbol>
<symbol id="podcast" viewBox="0 0 32 32">
<path d="M21 18l7 5-7 5v-10z"></path>
</symbol>
<symbol id="circle-full" viewBox="0 0 32 32">
<path d="M16 32c-8.836 0-16-7.164-16-16s7.164-16 16-16 16 7.164 16 16-7.164 16-16 16zM16 4c-6.627 0-12 5.373-12 12s5.373 12 12 12 12-5.373 12-12-5.373-12-12-12zM16 24c-4.418 0-8-3.582-8-8s3.582-8 8-8c4.418 0 8 3.582 8 8v0c-0 4.418-3.582 8-8 8h-0z"></path>
</symbol>
</defs>
</svg>
